<svg xmlns="http://www.w3.org/2000/svg" width="960" height="300" viewBox="0 0 960 300" role="img" aria-label="AI Vector Search inside Oracle AI Database">
<defs><marker id="arrow" markerWidth="10" markerHeight="10" refX="8" refY="3" orient="auto"><path d="M0,0 L0,6 L9,3 z" fill="#4b5563"/></marker></defs>
<rect width="960" height="300" fill="#ffffff"/>
<text x="32" y="40" font-family="Arial, sans-serif" font-size="22" font-weight="700" fill="#1f2933">AI Vector Search inside Oracle AI Database</text>
<text x="32" y="66" font-family="Arial, sans-serif" font-size="14" fill="#4b5563">Semantic search helps operators find meaning, not just exact words.</text>
<rect x="32" y="92" width="160" height="124" rx="6" fill="#f7f8f9" stroke="#6b7280"/>
<text x="44" y="120" font-family="Arial, sans-serif" font-size="15" font-weight="700" fill="#111827">Subscriber text</text>
<text x="44" y="150" font-family="Arial, sans-serif" font-size="13" fill="#374151">Care, outage, NPS,</text>
<text x="44" y="170" font-family="Arial, sans-serif" font-size="13" fill="#374151">and app signals</text>
<line x1="192" y1="154.0" x2="202" y2="154.0" stroke="#4b5563" stroke-width="2" marker-end="url(#arrow)"/>
<rect x="214" y="92" width="160" height="124" rx="6" fill="#eef5fb" stroke="#6b7280"/>
<text x="226" y="120" font-family="Arial, sans-serif" font-size="15" font-weight="700" fill="#111827">Embedding model</text>
<text x="226" y="150" font-family="Arial, sans-serif" font-size="13" fill="#374151">Text becomes</text>
<text x="226" y="170" font-family="Arial, sans-serif" font-size="13" fill="#374151">numeric vectors</text>
<line x1="374" y1="154.0" x2="384" y2="154.0" stroke="#4b5563" stroke-width="2" marker-end="url(#arrow)"/>
<rect x="396" y="92" width="160" height="124" rx="6" fill="#f5f1fb" stroke="#6b7280"/>
<text x="408" y="120" font-family="Arial, sans-serif" font-size="15" font-weight="700" fill="#111827">VECTOR columns</text>
<text x="408" y="150" font-family="Arial, sans-serif" font-size="13" fill="#374151">Signals and services</text>
<text x="408" y="170" font-family="Arial, sans-serif" font-size="13" fill="#374151">remain governed</text>
<line x1="556" y1="154.0" x2="566" y2="154.0" stroke="#4b5563" stroke-width="2" marker-end="url(#arrow)"/>
<rect x="578" y="92" width="160" height="124" rx="6" fill="#eff7f1" stroke="#6b7280"/>
<text x="590" y="120" font-family="Arial, sans-serif" font-size="15" font-weight="700" fill="#111827">SQL similarity</text>
<text x="590" y="150" font-family="Arial, sans-serif" font-size="13" fill="#374151">VECTOR_DISTANCE</text>
<text x="590" y="170" font-family="Arial, sans-serif" font-size="13" fill="#374151">ranks meaning</text>
<line x1="738" y1="154.0" x2="748" y2="154.0" stroke="#4b5563" stroke-width="2" marker-end="url(#arrow)"/>
<rect x="760" y="92" width="160" height="124" rx="6" fill="#fff6e8" stroke="#6b7280"/>
<text x="772" y="120" font-family="Arial, sans-serif" font-size="15" font-weight="700" fill="#111827">Service priority</text>
<text x="772" y="150" font-family="Arial, sans-serif" font-size="13" fill="#374151">Urgent matches</text>
<text x="772" y="170" font-family="Arial, sans-serif" font-size="13" fill="#374151">drive action</text>
</svg>
