<svg xmlns="http://www.w3.org/2000/svg" width="1440" height="600" viewBox="0 0 1440 600" role="img" aria-labelledby="title desc">
  <title id="title">Signal propagation graph flow</title>
  <desc id="desc">SQL/PGQ follows source relationships to manufacturer and regulated product evidence.</desc>
  <defs>
    <marker id="arrow" viewBox="0 0 10 10" refX="9" refY="5" markerWidth="9" markerHeight="9" orient="auto">
      <path d="M0 0 L10 5 L0 10 z" fill="#64748b"/>
    </marker>
    <filter id="shadow" x="-8%" y="-10%" width="116%" height="128%">
      <feDropShadow dx="0" dy="3" stdDeviation="4" flood-color="#0f172a" flood-opacity="0.13"/>
    </filter>
  </defs>
  <rect width="1440" height="600" fill="#f8fafc"/>
  <rect x="40" y="40" width="1360" height="520" rx="18" fill="#ffffff" stroke="#cbd5e1"/>

<text x="720" y="86" font-family="Arial, Helvetica, sans-serif" font-size="31" font-weight="700" fill="#111827" text-anchor="middle"><tspan x="720" dy="0">Follow quality signal relationships</tspan></text>
<text x="720" y="122" font-family="Arial, Helvetica, sans-serif" font-size="18" font-weight="400" fill="#475569" text-anchor="middle"><tspan x="720" dy="0">SQL/PGQ follows source relationships to manufacturer and regulated product evidence.</tspan></text>
<g filter="url(#shadow)"><circle cx="180" cy="292" r="82" fill="#dbeafe" stroke="#cbd5e1"/></g>
<text x="180" y="286" font-family="Arial, Helvetica, sans-serif" font-size="18" font-weight="700" fill="#111827" text-anchor="middle"><tspan x="180" dy="0">@fda_lab</tspan></text>
<text x="180" y="318" font-family="Arial, Helvetica, sans-serif" font-size="15" font-weight="400" fill="#334155" text-anchor="middle"><tspan x="180" dy="0">seed source</tspan></text>
<g filter="url(#shadow)"><circle cx="464" cy="208" r="82" fill="#dcfce7" stroke="#cbd5e1"/></g>
<text x="464" y="202" font-family="Arial, Helvetica, sans-serif" font-size="18" font-weight="700" fill="#111827" text-anchor="middle"><tspan x="464" dy="0">@recall_desk</tspan></text>
<text x="464" y="234" font-family="Arial, Helvetica, sans-serif" font-size="15" font-weight="400" fill="#334155" text-anchor="middle"><tspan x="464" dy="0">connected source</tspan></text>
<g filter="url(#shadow)"><circle cx="464" cy="376" r="82" fill="#fef3c7" stroke="#cbd5e1"/></g>
<text x="464" y="370" font-family="Arial, Helvetica, sans-serif" font-size="18" font-weight="700" fill="#111827" text-anchor="middle"><tspan x="464" dy="0">VitaCore</tspan></text>
<text x="464" y="402" font-family="Arial, Helvetica, sans-serif" font-size="15" font-weight="400" fill="#334155" text-anchor="middle"><tspan x="464" dy="0">manufacturer</tspan></text>
<g filter="url(#shadow)"><circle cx="782" cy="292" r="92" fill="#fee2e2" stroke="#cbd5e1"/></g>
<text x="782" y="286" font-family="Arial, Helvetica, sans-serif" font-size="18" font-weight="700" fill="#111827" text-anchor="middle"><tspan x="782" dy="0">mRNA LNP</tspan></text>
<text x="782" y="318" font-family="Arial, Helvetica, sans-serif" font-size="15" font-weight="400" fill="#334155" text-anchor="middle"><tspan x="782" dy="0">regulated product</tspan></text>
<path d="M260 268 C330 242 370 228 384 222" fill="none" stroke="#64748b" stroke-width="4" marker-end="url(#arrow)"/>
<path d="M260 316 C330 348 370 362 384 368" fill="none" stroke="#64748b" stroke-width="4" marker-end="url(#arrow)"/>
<path d="M546 362 C628 342 660 324 692 308" fill="none" stroke="#64748b" stroke-width="4" marker-end="url(#arrow)"/>
<g filter="url(#shadow)">
<rect x="1010" y="216" width="270" height="170" rx="14" fill="#ffffff" stroke="#cbd5e1"/>
<path d="M1010,230 Q1010,216 1024,216 H1266 Q1280,216 1280,230 V272 H1010 Z" fill="#e0e7ff"/>
<text x="1145.0" y="252" font-family="Arial, Helvetica, sans-serif" font-size="18" font-weight="700" fill="#111827" text-anchor="middle"><tspan x="1145.0" dy="0">SQL/PGQ Output</tspan></text>
<text x="1145.0" y="306" font-family="Arial, Helvetica, sans-serif" font-size="17" font-weight="400" fill="#334155" text-anchor="middle"><tspan x="1145.0" dy="0">GRAPH_TABLE</tspan><tspan x="1145.0" dy="29">ranked reach</tspan><tspan x="1145.0" dy="29">relationship rows</tspan></text>
</g>
<path d="M874 292 H982" stroke="#64748b" stroke-width="4" marker-end="url(#arrow)"/>
<rect x="92" y="500" width="1256" height="54" rx="14" fill="#111827"/>
<text x="720" y="534" font-family="Arial, Helvetica, sans-serif" font-size="19" font-weight="700" fill="#ffffff" text-anchor="middle"><tspan x="720" dy="0">Outcome: relationship paths explain why sources, manufacturers, and products are connected.</tspan></text>
</svg>
