<svg xmlns="http://www.w3.org/2000/svg" width="708" height="400" viewBox="0 0 708 400" role="img" aria-labelledby="title desc">
  <title id="title">Reservation Information Copy Password button highlighted</title>
  <desc id="desc">Reservation Information dialog with the Copy button highlighted in the Password row.</desc>
  <defs>
    <filter id="softShadow" x="-10%" y="-10%" width="120%" height="120%">
      <feDropShadow dx="0" dy="1" stdDeviation="2" flood-color="#000" flood-opacity="0.16"/>
    </filter>
    <filter id="blurred" x="-10%" y="-10%" width="120%" height="120%">
      <feGaussianBlur stdDeviation="4"/>
    </filter>
  </defs>
  <rect width="708" height="400" fill="#f4f2f0"/>
  <rect x="0" y="2" width="708" height="397" fill="#fff"/>
  <text x="15" y="60" font-family="Arial, Helvetica, sans-serif" font-size="20" font-weight="700" fill="#1f1f1f">Reservation Information</text>
  <rect x="665" y="32" width="39" height="40" fill="#fff" stroke="#111" stroke-dasharray="3 3"/>
  <path d="M679 46l13 13m0-13l-13 13" stroke="#111" stroke-width="1.6" stroke-linecap="round"/>
  <line x1="0" y1="82" x2="708" y2="82" stroke="#e6e6e6"/>

  <g filter="url(#softShadow)">
    <rect x="15" y="100" width="688" height="268" rx="6" fill="#fff"/>
  </g>
  <rect x="15" y="100" width="688" height="49" rx="6" fill="#74807e"/>
  <path d="M32 120l11 0-5.5 8z" fill="#111"/>
  <text x="60" y="131" font-family="Arial, Helvetica, sans-serif" font-size="16" font-weight="700" fill="#fff">Terraform Outputs</text>

  <line x1="15" y1="149" x2="703" y2="149" stroke="#d8d8d8"/>
  <line x1="124" y1="149" x2="124" y2="368" stroke="#e6e6e6"/>
  <line x1="550" y1="149" x2="550" y2="368" stroke="#e6e6e6"/>
  <line x1="15" y1="221" x2="703" y2="221" stroke="#e6e6e6"/>
  <line x1="15" y1="294" x2="703" y2="294" stroke="#e6e6e6"/>

  <g font-family="Arial, Helvetica, sans-serif" font-size="15" fill="#202020">
    <text x="23" y="190">1 - Login</text>
    <text x="133" y="190">LLUSER</text>
    <text x="23" y="263">2 - Password</text>
    <text x="133" y="263">F</text>
    <rect x="143" y="250" width="90" height="18" rx="3" fill="#d8d8d8" filter="url(#blurred)"/>
    <text x="237" y="263">HG</text>
    <text x="23" y="336">3 - Login URL</text>
    <text x="133" y="336">https://DOC</text>
    <rect x="207" y="320" width="309" height="22" rx="3" fill="#d8d8d8" filter="url(#blurred)"/>
    <text x="518" y="336">aclec</text>
  </g>

  <g font-family="Arial, Helvetica, sans-serif" font-size="15" font-weight="700" fill="#202020">
    <rect x="580" y="159" width="93" height="53" rx="4" fill="#f0f0f0"/>
    <path d="M604 176h12l6 6v16h-18z" fill="none" stroke="#111" stroke-width="1.5"/>
    <path d="M615 176v7h7" fill="none" stroke="#111" stroke-width="1.5"/>
    <text x="631" y="192">Copy</text>

    <rect x="580" y="232" width="93" height="52" rx="4" fill="#f0f0f0"/>
    <path d="M604 249h12l6 6v16h-18z" fill="none" stroke="#111" stroke-width="1.5"/>
    <path d="M615 249v7h7" fill="none" stroke="#111" stroke-width="1.5"/>
    <text x="631" y="265">Copy</text>

    <rect x="563" y="306" width="126" height="51" rx="4" fill="#f0f0f0"/>
    <path d="M582 323h18v18h-18z" fill="none" stroke="#111" stroke-width="1.7"/>
    <path d="M591 333l14-14m-9 0h9v9" fill="none" stroke="#111" stroke-width="1.7" stroke-linecap="round"/>
    <text x="607" y="337">Open Link</text>
  </g>
  <rect x="555" y="224" width="151" height="72" fill="none" stroke="#e60000" stroke-width="5"/>
</svg>
